<?xml version="1.0" encoding="UTF-8" standalone="no"?>
<!-- Created with Inkscape (http://www.inkscape.org/) -->

<svg
   xmlns:dc="http://purl.org/dc/elements/1.1/"
   xmlns:cc="http://creativecommons.org/ns#"
   xmlns:rdf="http://www.w3.org/1999/02/22-rdf-syntax-ns#"
   xmlns:svg="http://www.w3.org/2000/svg"
   xmlns="http://www.w3.org/2000/svg"
   xmlns:sodipodi="http://sodipodi.sourceforge.net/DTD/sodipodi-0.dtd"
   xmlns:inkscape="http://www.inkscape.org/namespaces/inkscape"
   width="16"
   height="16"
   viewBox="0 0 16 16"
   version="1.1"
   id="svg19258"
   inkscape:version="0.92.4 (5da689c313, 2019-01-14)"
   sodipodi:docname="favicon.svg"
   inkscape:export-filename="/home/tobias/No Themes/nothemes-website/assets/favicon.png"
   inkscape:export-xdpi="96"
   inkscape:export-ydpi="96">
  <defs
     id="defs19252" />
  <sodipodi:namedview
     id="base"
     pagecolor="#ffffff"
     bordercolor="#666666"
     borderopacity="1.0"
     inkscape:pageopacity="0.0"
     inkscape:pageshadow="2"
     inkscape:zoom="1"
     inkscape:cx="-1.211765"
     inkscape:cy="6.5870977"
     inkscape:document-units="px"
     inkscape:current-layer="layer1"
     showgrid="false"
     inkscape:window-width="1920"
     inkscape:window-height="1016"
     inkscape:window-x="1600"
     inkscape:window-y="27"
     inkscape:window-maximized="1"
     units="px"
     fit-margin-top="0"
     fit-margin-left="0"
     fit-margin-right="0"
     fit-margin-bottom="0">
    <inkscape:grid
       type="xygrid"
       id="grid19822"
       originx="-207"
       originy="-888.9997" />
  </sodipodi:namedview>
  <metadata
     id="metadata19255">
    <rdf:RDF>
      <cc:Work
         rdf:about="">
        <dc:format>image/svg+xml</dc:format>
        <dc:type
           rdf:resource="http://purl.org/dc/dcmitype/StillImage" />
        <dc:title />
      </cc:Work>
    </rdf:RDF>
  </metadata>
  <g
     inkscape:label="Layer 1"
     inkscape:groupmode="layer"
     id="layer1"
     transform="translate(-207,-217.52)">
    <g
       id="g843"
       transform="matrix(0.14285714,0,0,0.14285714,177.42857,200.16)"
       style="stroke-width:7">
      <g
         style="display:inline;stroke-width:1;enable-background:new"
         id="g3707"
         inkscape:label="emoji-nature"
         transform="matrix(7,0,0,7,-115,-2664.48)">
        <rect
           y="398"
           x="46"
           height="16"
           width="16"
           id="rect3701"
           style="color:#bebebe;display:inline;overflow:visible;visibility:visible;opacity:0.51464431;fill:none;stroke:none;stroke-width:3;marker:none;enable-background:accumulate" />
        <rect
           style="opacity:1;vector-effect:none;fill:none;fill-opacity:1;stroke:#2e3436;stroke-width:2;stroke-linecap:butt;stroke-linejoin:miter;stroke-miterlimit:4;stroke-dasharray:none;stroke-dashoffset:0;stroke-opacity:1;marker:none;marker-start:none;marker-mid:none;marker-end:none;paint-order:normal"
           id="rect3703"
           width="0"
           height="0"
           x="0"
           y="0"
           transform="translate(-254,134)" />
        <path
           style="color:#000000;font-style:normal;font-variant:normal;font-weight:normal;font-stretch:normal;font-size:medium;line-height:normal;font-family:sans-serif;font-variant-ligatures:normal;font-variant-position:normal;font-variant-caps:normal;font-variant-numeric:normal;font-variant-alternates:normal;font-feature-settings:normal;text-indent:0;text-align:start;text-decoration:none;text-decoration-line:none;text-decoration-style:solid;text-decoration-color:#000000;letter-spacing:normal;word-spacing:normal;text-transform:none;writing-mode:lr-tb;direction:ltr;text-orientation:mixed;dominant-baseline:auto;baseline-shift:baseline;text-anchor:start;white-space:normal;shape-padding:0;clip-rule:nonzero;display:inline;overflow:visible;visibility:visible;opacity:1;isolation:auto;mix-blend-mode:normal;color-interpolation:sRGB;color-interpolation-filters:linearRGB;solid-color:#000000;solid-opacity:1;vector-effect:none;fill:#2ec27e;fill-opacity:1;fill-rule:nonzero;stroke:none;stroke-width:1px;stroke-linecap:round;stroke-linejoin:miter;stroke-miterlimit:4;stroke-dasharray:none;stroke-dashoffset:0;stroke-opacity:1;color-rendering:auto;image-rendering:auto;shape-rendering:auto;text-rendering:auto;enable-background:accumulate"
           d="m 306.00302,264.99996 c 0,0 -3,0 -3,3 v 5 c 0,0 0.0439,1.41871 0.0283,2.00046 0,0.99958 -0.5377,1.41303 -1.40438,2.12067 -0.62725,0.48985 -0.77411,1.31026 -0.30664,1.69727 0.42932,0.35542 1.16167,0.30404 1.66016,-0.34375 L 304,277 c 0.69754,-1.01395 0.98273,-1.87583 1,-3 l 0.003,-6.00004 C 305.00352,266.99996 306,267 306,267 v 6.57422 l 3.00302,-3.07426 v -2.5 C 309.00302,266.99996 310,267 310,267 l 0.003,2.49996 1.997,-2.03512 c 0.33843,-0.31195 0.50302,-0.46488 1,-0.46484 l 0.003,0.99996 L 309,272 h 4 c 0,0 0.003,1 -1,1 h -4 l -2,2 c 0,0.42593 0,2.00586 2,2.00586 l 4.00302,-0.006 c 0,0 3,0 2.99698,-2.99019 V 265 Z"
           transform="translate(-254,134)"
           id="path3705"
           inkscape:connector-curvature="0"
           sodipodi:nodetypes="cccccccccscccscccccccsccccccc" />
      </g>
    </g>
    <g
       style="stroke-width:7"
       transform="matrix(0.14285714,0,0,0.14285714,157.42857,200.16)"
       id="g832">
      <rect
         ry="6.9979057"
         rx="6.9979057"
         style="opacity:1;vector-effect:none;fill:#2ec27e;fill-opacity:1;stroke:none;stroke-width:14;stroke-linecap:round;stroke-linejoin:round;stroke-miterlimit:4;stroke-dasharray:none;stroke-dashoffset:0;stroke-opacity:1"
         id="rect822"
         width="112"
         height="112"
         x="207"
         y="121.52" />
      <g
         transform="matrix(7,0,0,7,-115,-2664.48)"
         inkscape:label="emoji-nature"
         id="g830"
         style="display:inline;stroke-width:1;enable-background:new">
        <rect
           style="color:#bebebe;display:inline;overflow:visible;visibility:visible;opacity:0.51464431;fill:none;stroke:none;stroke-width:3;marker:none;enable-background:accumulate"
           id="rect824"
           width="16"
           height="16"
           x="46"
           y="398" />
        <rect
           transform="translate(-254,134)"
           y="0"
           x="0"
           height="0"
           width="0"
           id="rect826"
           style="opacity:1;vector-effect:none;fill:none;fill-opacity:1;stroke:#2e3436;stroke-width:2;stroke-linecap:butt;stroke-linejoin:miter;stroke-miterlimit:4;stroke-dasharray:none;stroke-dashoffset:0;stroke-opacity:1;marker:none;marker-start:none;marker-mid:none;marker-end:none;paint-order:normal" />
        <path
           sodipodi:nodetypes="cccccccccscccscccccccsccccccc"
           inkscape:connector-curvature="0"
           id="path828"
           transform="translate(-254,134)"
           d="m 306.00302,264.99996 c 0,0 -3,0 -3,3 v 5 c 0,0 0.0439,1.41871 0.0283,2.00046 0,0.99958 -0.5377,1.41303 -1.40438,2.12067 -0.62725,0.48985 -0.77411,1.31026 -0.30664,1.69727 0.42932,0.35542 1.16167,0.30404 1.66016,-0.34375 L 304,277 c 0.69754,-1.01395 0.98273,-1.87583 1,-3 l 0.003,-6.00004 C 305.00352,266.99996 306,267 306,267 v 6.57422 l 3.00302,-3.07426 v -2.5 C 309.00302,266.99996 310,267 310,267 l 0.003,2.49996 1.997,-2.03512 c 0.33843,-0.31195 0.50302,-0.46488 1,-0.46484 l 0.003,0.99996 L 309,272 h 4 c 0,0 0.003,1 -1,1 h -4 l -2,2 c 0,0.42593 0,2.00586 2,2.00586 l 4.00302,-0.006 c 0,0 3,0 2.99698,-2.99019 V 265 Z"
           style="color:#000000;font-style:normal;font-variant:normal;font-weight:normal;font-stretch:normal;font-size:medium;line-height:normal;font-family:sans-serif;font-variant-ligatures:normal;font-variant-position:normal;font-variant-caps:normal;font-variant-numeric:normal;font-variant-alternates:normal;font-feature-settings:normal;text-indent:0;text-align:start;text-decoration:none;text-decoration-line:none;text-decoration-style:solid;text-decoration-color:#000000;letter-spacing:normal;word-spacing:normal;text-transform:none;writing-mode:lr-tb;direction:ltr;text-orientation:mixed;dominant-baseline:auto;baseline-shift:baseline;text-anchor:start;white-space:normal;shape-padding:0;clip-rule:nonzero;display:inline;overflow:visible;visibility:visible;opacity:1;isolation:auto;mix-blend-mode:normal;color-interpolation:sRGB;color-interpolation-filters:linearRGB;solid-color:#000000;solid-opacity:1;vector-effect:none;fill:#ffffff;fill-opacity:1;fill-rule:nonzero;stroke:none;stroke-width:1px;stroke-linecap:round;stroke-linejoin:miter;stroke-miterlimit:4;stroke-dasharray:none;stroke-dashoffset:0;stroke-opacity:1;color-rendering:auto;image-rendering:auto;shape-rendering:auto;text-rendering:auto;enable-background:accumulate" />
      </g>
    </g>
  </g>
</svg>
